<svg xmlns="http://www.w3.org/2000/svg" xmlns:xlink="http://www.w3.org/1999/xlink" width="500" zoomAndPan="magnify" viewBox="0 0 375 374.999991" height="500" preserveAspectRatio="xMidYMid meet" version="1.0"><defs><clipPath id="fac8de3447"><path d="M 45 5.28125 L 322 5.28125 L 322 356 L 45 356 Z M 45 5.28125 " clip-rule="nonzero"/></clipPath><clipPath id="73e4c2387b"><path d="M 133 23 L 371 23 L 371 374.28125 L 133 374.28125 Z M 133 23 " clip-rule="nonzero"/></clipPath></defs><path stroke-linecap="butt" transform="matrix(0.55589, -0.503474, 0.503474, 0.55589, 186.492779, 235.345854)" fill="none" stroke-linejoin="miter" d="M 0.00080981 1.999648 L 151.03468 1.997196 " stroke="#000000" stroke-width="4" stroke-opacity="1" stroke-miterlimit="4"/><path fill="#07c4c2" d="M 196.023438 354.238281 C 206.460938 342.207031 215.230469 333.421875 242.527344 310.167969 C 228.355469 265.171875 180.414062 225.871094 107.640625 177.054688 C 36.800781 129.519531 17.328125 106.316406 30.476562 85.09375 C 28.214844 88.851562 25.066406 93.789062 22.953125 97.625 C 14.488281 114.597656 14.160156 115.257812 10.445312 125.695312 C 4.792969 144.144531 4.570312 144.863281 2.648438 155.789062 C 1.621094 163.660156 0.484375 174.1875 0.0117188 182.109375 C 2.089844 212.527344 34.269531 232.820312 101.019531 272.234375 C 143.253906 297.171875 191.121094 325.433594 196.023438 354.238281 " fill-opacity="1" fill-rule="nonzero"/><path fill="#07c4c2" d="M 187.53125 368.308594 C 185.019531 351.492188 146.550781 331.765625 97.847656 306.800781 C 38.402344 276.320312 15.800781 261.722656 7.40625 240.492188 C 9.28125 246.089844 11.730469 253.566406 13.894531 259.054688 C 21.753906 276.277344 22.0625 276.949219 27.808594 286.355469 L 30.6875 290.871094 C 43.726562 307.488281 65.300781 317.84375 127.886719 342.5625 C 149.882812 351.25 174.816406 361.09375 187.53125 368.308594 " fill-opacity="1" fill-rule="nonzero"/><path fill="#07c4c2" d="M 187.53125 368.308594 C 90.070312 338.804688 66.914062 331.789062 50.332031 315.867188 C 55.597656 321.117188 62.789062 327.949219 68.386719 332.84375 C 81.007812 342.53125 82.945312 344.019531 95.167969 351.277344 L 103.648438 355.808594 C 118.066406 362 146.289062 366.207031 187.53125 368.308594 " fill-opacity="1" fill-rule="nonzero"/><path fill="#00fefb" d="M 0.0117188 182.105469 C 0.566406 174.191406 1.535156 163.648438 2.648438 155.789062 C 6.769531 136.460938 6.851562 136.09375 10.445312 125.695312 C 17.425781 108.007812 17.699219 107.320312 22.953125 97.625 C 25.207031 93.863281 28.078125 88.765625 30.476562 85.09375 C 42.875 69.09375 61.957031 59.703125 109.484375 41.269531 C 138.4375 30.046875 171.257812 17.320312 188.203125 7.289062 C 215.855469 31.097656 133.980469 78.949219 85.058594 107.539062 C 27.277344 141.308594 3.359375 155.285156 0.0117188 182.109375 " fill-opacity="1" fill-rule="nonzero"/><path fill="#00fefb" d="M 30.6875 290.871094 L 27.808594 286.355469 C 18.507812 269.914062 18.144531 269.273438 13.894531 259.054688 C 11.875 253.507812 9.132812 246.136719 7.40625 240.492188 C 2.59375 213.875 26.113281 195.558594 89.550781 153.71875 C 215.480469 70.664062 248.671875 21.394531 188.203125 7.289062 C 238.214844 12.894531 299.269531 50.609375 172.328125 153.222656 C 130.484375 187.046875 83.246094 213.855469 44.414062 251.59375 C 21.554688 273.808594 26.40625 282.871094 30.6875 290.871094 " fill-opacity="1" fill-rule="nonzero"/><g clip-path="url(#fac8de3447)"><path fill="#00fefb" d="M 222.46875 6.402344 C 268.730469 14.824219 446.175781 97.539062 172.769531 287.367188 C 88.015625 346.214844 88.015625 346.214844 103.648438 355.808594 L 95.167969 351.277344 C 82.332031 343.40625 79.664062 341.765625 68.386719 332.84375 C 62.820312 327.910156 55.5625 321.148438 50.332031 315.867188 C 35.117188 296.023438 56.878906 279.75 128.980469 225.835938 C 408.199219 17.054688 190.527344 7.289062 188.203125 7.289062 C 199.945312 5.710938 211.402344 5.449219 222.46875 6.402344 " fill-opacity="1" fill-rule="nonzero"/></g><g clip-path="url(#73e4c2387b)"><path fill="#00fefb" d="M 280.566406 24.324219 C 292.976562 31.941406 301.179688 36.976562 315.375 49.765625 C 327.941406 62.242188 328.96875 63.265625 336.339844 72.570312 C 347.054688 87.476562 347.699219 88.367188 353.121094 98.210938 C 355.164062 102.335938 358.019531 107.773438 359.890625 111.976562 C 383.691406 173.128906 361.824219 221.921875 339.289062 252.09375 C 324.0625 272.484375 288.390625 320.242188 172.746094 370.125 C 164.683594 373.605469 164.667969 373.613281 164.003906 374.234375 L 160.441406 373.746094 C 153.644531 372.644531 153.382812 372.605469 149.703125 371.84375 C 146.019531 371.015625 141.125 369.832031 137.46875 368.878906 C 136.066406 368.308594 134.601562 366.621094 133.960938 365.246094 C 136.652344 360.296875 141.476562 356.9375 170.832031 339.585938 C 219.035156 311.09375 308.746094 258.0625 338.546875 187.652344 C 377.0625 96.621094 317.566406 45.585938 278.667969 23.269531 C 279.300781 23.617188 279.933594 23.96875 280.566406 24.324219 " fill-opacity="1" fill-rule="nonzero"/></g></svg>